<svg xmlns="http://www.w3.org/2000/svg" width="1123" height="794" stroke="none" stroke-linecap="round" stroke-linejoin="round" fill="#fff" fill-rule="evenodd">
    <path d="M411 493H291h0c-59 0-107-48-107-108 0-61 45-109 107-109 11 0 23 3 37 4l23 7 7-23c21-70 88-113 165-113 93 0 165 71 165 164 0 15-3 29-7 44l-9 34 36-4h7c27 0 48 22 48 48 0 25-18 44-41 48H602c-4-33-22-63-45-86-30-29-70-47-112-47-30 0-59 9-82 23l26 40c18-10 37-14 59-14 30 0 59 10 78 33 22 22 34 49 34 78 0 30-11 59-34 78-22 23-48 33-78 33-22 0-42-6-59-18l-26 40c26 15 55 25 82 25 42 0 82-14 112-45 26-26 41-59 45-94h122 3c49-4 85-46 85-97 0-40-38-78-82-86 2-8 2-12 2-25 0-118-83-212-217-212h0c-85 0-160 48-191 126-11 0-19-4-31-4-88-1-158 66-158 152 0 84 70 151 154 151h132l-10-43z" fill="#59b4d9"/>
    <path d="M409 505c0-41 34-75 76-75 41 0 75 34 75 75 0 42-34 75-75 75-42 0-76-33-76-75z" fill="#68217a"/>
    <path d="M743 477h103v24H743zm0 46h103v24H743zm0 44h103v24H743zm117-182H715c-17 0-31 17-31 38v211c0 21 14 38 31 38h161c17 0 31-17 31-38V442l-47-57zm16 264H715c-7 0-12-6-12-15V423c0-8 5-14 12-14h135v47h38v179c0 8-5 14-12 14z" fill="#0281ac"/>
</svg>