<svg xmlns="http://www.w3.org/2000/svg" width="1123" height="794" stroke="#000" stroke-linecap="round" stroke-linejoin="round" fill="#fff" fill-rule="evenodd">
    <path d="M264 272h262v53H264zm0 102h262v53H264zm0 101h262v53H264zM562 65H193c-43 0-78 38-78 86v473c0 48 35 86 78 86h409c43 0 78-38 78-86V193L562 65zm40 594H193c-16 0-30-15-30-35V151c0-18 14-33 30-33h344v106h95v402c0 18-14 33-30 33z" fill="#0281ac" stroke="none"/>
    <path d="M707 608h-74 0c-37 0-67-28-67-64s29-65 67-65c7 0 14 2 23 2l14 4 4-13c13-42 55-67 103-67 58 0 102 42 102 97 0 9-2 18-4 27l-6 19 23-2h4c16 0 30 14 30 29s-12 26-26 29h-75c-2-20-13-38-27-52-19-17-44-27-70-27-18 0-36 4-51 13l16 24c12-6 24-9 37-9 18 0 37 7 49 20 13 13 20 29 20 46 0 18-6 36-20 47-14 13-31 20-49 20-13 0-26-4-37-11l-16 23c16 9 35 16 51 16 26 0 51-9 70-28 16-15 25-35 27-55h77 1c30-3 53-27 53-58 0-24-24-46-51-51 2-5 2-7 2-15 0-70-52-126-135-126h0c-53 0-100 29-119 75-7 0-12-2-19-2-55-1-98 39-98 90 0 50 43 90 95 90h82l-6-26z" fill="#59b4d9" stroke="none"/>
    <path d="M706 615c0-25 21-45 47-45s47 20 47 45c0 24-21 44-47 44s-47-20-47-44z" fill="#68217a" stroke="none"/>
</svg>