<svg xmlns="http://www.w3.org/2000/svg" width="1123" height="794" stroke="#000" stroke-linecap="round" stroke-linejoin="round" fill="#fff" fill-rule="evenodd">
    <path d="M264 272h262v53H264zm0 102h262v53H264zm0 101h262v53H264zM562 65H193c-43 0-78 38-78 86v473c0 48 35 86 78 86h409c43 0 78-38 78-86V193L562 65zm40 594H193c-16 0-30-15-30-35V151c0-18 14-33 30-33h344v106h95v402c0 18-14 33-30 33z" fill="#66d9ff" stroke="none"/>
    <g stroke="none">
        <path d="M684 595h-74 0c-36 0-66-30-66-68s28-68 66-68c7 0 14 1 23 2l14 4 4-14c13-44 54-71 102-71 57 0 101 45 101 103 0 9-2 19-4 28l-6 21 22-3h4c17 0 30 15 30 31s-11 28-25 30h-74c-3-21-13-39-28-54-18-18-43-29-68-29-19 0-37 5-51 14l16 25c11-6 23-9 36-9 19 0 37 7 48 21 14 14 21 30 21 49s-7 37-21 49c-13 14-29 21-48 21-13 0-25-4-36-12l-16 25c16 10 34 16 51 16 25 0 50-9 68-28 16-16 25-37 28-59h75 2c30-3 52-29 52-61 0-25-23-49-50-54 1-5 1-7 1-16 0-74-51-133-133-133h0c-52 0-99 30-118 79-7 0-12-2-19-2-54-1-97 41-97 95 0 53 43 95 95 95h81l-6-27z" fill="#59b4d9"/>
        <path d="M683 602c0-26 21-47 46-47 26 0 47 21 47 47s-21 47-47 47c-25 0-46-21-46-47z" fill="#68217a"/>
    </g>
</svg>