<svg xmlns="http://www.w3.org/2000/svg" width="1123" height="794" stroke="none" stroke-linecap="round" stroke-linejoin="round" fill="#fff" fill-rule="evenodd"><path d="M168.1331 200.6308h-17.422 0c-8.6131 0-15.6601-6.7869-15.6601-15.2704s6.6556-15.2705 15.6601-15.2705c1.5661 0 3.3278.3771 5.2854.5656l3.3278.9426.9786-3.2049c3.1321-9.8031 12.9198-15.8359 24.0777-15.8359 13.5069 0 23.8818 9.9918 23.8818 22.9999 0 2.0737-.3916 4.1474-.9789 6.2212l-1.3701 4.7131 5.2852-.5655h.9788c3.9151 0 7.047 3.2048 7.047 6.7868s-2.7404 6.2212-6.0683 6.7868h-17.4219c-.5871-4.713-3.132-8.8606-6.4599-12.0654-4.3066-4.1476-10.179-6.5984-16.2474-6.5984-4.3066 0-8.6131 1.1311-11.9408 3.2048l3.7193 5.6557c2.7404-1.5081 5.4809-2.0736 8.613-2.0736 4.3066 0 8.6132 1.5081 11.3536 4.713 3.1321 3.0164 4.8938 6.7868 4.8938 10.9343s-1.5659 8.2951-4.8938 10.9344c-3.1319 3.2049-7.047 4.7131-11.3536 4.7131-3.1321 0-6.0682-.9427-8.613-2.6394l-3.7193 5.6557c3.7193 2.0738 8.0257 3.582 11.9408 3.582 6.0684 0 11.9408-2.0738 16.2474-6.4098 3.7193-3.582 5.8728-8.2951 6.4599-13.1967h17.8134.3915c7.0472-.5655 12.3325-6.4097 12.3325-13.5736 0-5.6557-5.4811-10.9344-11.941-12.0655.3917-1.1311.3917-1.6966.3917-3.5819 0-16.59-12.1368-29.7867-31.5162-29.7867h0c-12.3324 0-23.2946 6.7869-27.797 17.7212-1.5659 0-2.7403-.5655-4.502-.5655-12.724-.1885-22.9032 9.2376-22.9032 21.3031 0 11.877 10.1792 21.3031 22.3157 21.3031h19.1837l-1.3702-6.0327z" fill="#59b4d9"/><path d="M161.6734 203.0815c0-5.8487 4.889-10.5572 10.9621-10.5572s10.962 4.7085 10.962 10.5572-4.889 10.5574-10.962 10.5574-10.9621-4.7086-10.9621-10.5574z" fill="#68217a"/><path d="M226.7345 184.6968h-22.1886c-2.591 0-4.7309 2.5239-4.7309 5.5786v30.4173c0 3.0552 2.1399 5.5791 4.7309 5.5791h24.5545c2.5903 0 4.7305-2.5239 4.7305-5.5791v-27.7608l-7.0964-8.2351zm4.1679 35.9959c0 1.1956-.7884 2.1252-1.802 2.1252h-24.5545c-1.0143 0-1.8025-.9296-1.8025-2.1252v-30.5503c0-1.1951.7882-2.1252 1.8025-2.1252h20.7246v6.7745h5.6319v25.901zm-25.9063-13.1498l6.4201 4.9145v-2.7893l-4.5053-3.055h0l4.5053-3.3207v-2.7892l-6.4201 5.1804zm7.8845 8.3682h1.9148l4.8435-19.2599h-2.0276zm8.3349-12.7515l4.6184 3.3207h0l-4.6184 3.055v2.7893l6.4201-4.9145v-1.8593l-6.4201-5.1804z" fill="#2a3282"/></svg>